<svg width="77" height="77" viewBox="0 0 77 77" version="1.1" xmlns="http://www.w3.org/2000/svg" xmlns:xlink="http://www.w3.org/1999/xlink">
<title>creator-icon</title>
<desc>Created using Figma</desc>
<g id="Canvas" transform="translate(-786 4286)">
<g id="creator-icon">
<g id="Doggo">
<g id="Polygon">
<use xlink:href="#path0_fill" transform="matrix(-1 -1.17735e-16 1.27385e-16 -1 846.218 -4221.83)" fill="#FFFFFF"/>
</g>
<g id="Polygon">
<use xlink:href="#path1_fill" transform="matrix(1 3.3028e-18 -3.64451e-18 1 807.418 -4267.24)" fill="#FFFFFF"/>
</g>
<g id="Polygon">
<use xlink:href="#path1_fill" transform="matrix(0.888896 0.45811 -0.45811 0.888896 832.669 -4273.17)" fill="#FFFFFF"/>
</g>
</g>
<g id="Ellipse">
<mask id="mask0_outline_ins">
<use xlink:href="#path2_fill" fill="white" transform="translate(786 -4286)"/>
</mask>
<g mask="url(#mask0_outline_ins)">
<use xlink:href="#path3_stroke_2x" transform="translate(786 -4286)" fill="#FFFFFF"/>
</g>
</g>
</g>
</g>
<defs>
<path id="path0_fill" d="M 22.2115 0L 41.4473 34.0577L 2.97578 34.0577L 22.2115 0Z"/>
<path id="path1_fill" d="M 6.18549 0L 11.5423 11.758L 0.828699 11.758L 6.18549 0Z"/>
<path id="path2_fill" d="M 77 38.5C 77 59.763 59.763 77 38.5 77C 17.237 77 0 59.763 0 38.5C 0 17.237 17.237 0 38.5 0C 59.763 0 77 17.237 77 38.5Z"/>
<path id="path3_stroke_2x" d="M 71 38.5C 71 56.4493 56.4493 71 38.5 71L 38.5 83C 63.0767 83 83 63.0767 83 38.5L 71 38.5ZM 38.5 71C 20.5507 71 6 56.4493 6 38.5L -6 38.5C -6 63.0767 13.9233 83 38.5 83L 38.5 71ZM 6 38.5C 6 20.5507 20.5507 6 38.5 6L 38.5 -6C 13.9233 -6 -6 13.9233 -6 38.5L 6 38.5ZM 38.5 6C 56.4493 6 71 20.5507 71 38.5L 83 38.5C 83 13.9233 63.0767 -6 38.5 -6L 38.5 6Z"/>
</defs>
</svg>
