<svg width="28" height="35" viewBox="0 0 28 35" version="1.1" xmlns="http://www.w3.org/2000/svg" xmlns:xlink="http://www.w3.org/1999/xlink">
<title>forum-icon</title>
<desc>Created using Figma</desc>
<g id="Canvas" transform="translate(3945 10056)">
<g id="forum-icon">
<g id="Vector 2">
<use xlink:href="#path0_stroke" transform="translate(-3944 -10055)" fill="#A69B97"/>
</g>
<g id="Rectangle 5">
<use xlink:href="#path1_fill" transform="translate(-3940 -10039)" fill="#C9C2BF"/>
</g>
<g id="Rectangle 5.1">
<use xlink:href="#path1_fill" transform="translate(-3940 -10034)" fill="#C9C2BF"/>
</g>
<g id="Rectangle 5.2">
<use xlink:href="#path1_fill" transform="translate(-3940 -10029)" fill="#C9C2BF"/>
</g>
</g>
</g>
<defs>
<path id="path0_stroke" d="M 26 11L 27 11L 27 10.582L 26.7025 10.2883L 26 11ZM 14.8571 0L 15.5597 -0.711654L 15.2676 -1L 14.8571 -1L 14.8571 0ZM -1 1L -1 32L 1 32L 1 1L -1 1ZM 1 34L 25 34L 25 32L 1 32L 1 34ZM 27 32L 27 11L 25 11L 25 32L 27 32ZM 26.7025 10.2883L 15.5597 -0.711654L 14.1546 0.711654L 25.2975 11.7117L 26.7025 10.2883ZM 14.8571 -1L 0.999999 -1L 0.999999 1L 14.8571 1L 14.8571 -1ZM 13.8571 0L 13.8571 10L 15.8571 10L 15.8571 0L 13.8571 0ZM 15.8571 12L 26 12L 26 10L 15.8571 10L 15.8571 12ZM 25 34C 26.1046 34 27 33.1046 27 32L 25 32L 25 32L 25 34ZM -1 32C -1 33.1046 -0.104568 34 1 34L 1 32L 1 32L -1 32ZM 13.8571 10C 13.8571 11.1046 14.7526 12 15.8571 12L 15.8571 10L 15.8571 10L 13.8571 10ZM 1 1L 0.999999 1L 0.999999 -1C -0.104571 -1 -1 -0.104569 -1 1L 1 1Z"/>
<path id="path1_fill" d="M 0 0L 17.3333 0L 17.3333 2L 0 2L 0 0Z"/>
</defs>
</svg>
