<svg width="52" height="46" viewBox="0 0 52 46" version="1.1" xmlns="http://www.w3.org/2000/svg" xmlns:xlink="http://www.w3.org/1999/xlink">
<title>heart-icon</title>
<desc>Created using Figma</desc>
<g id="Canvas" transform="translate(3376 4297)">
<g id="heart-icon">
<g id="Group">
<g id="Ellipse">
<use xlink:href="#path0_fill" transform="matrix(0.722769 -0.69109 0.722769 0.69109 -3382 -4281.6)" fill="#FFFFFF"/>
</g>
</g>
<g id="Group">
<g id="Ellipse">
<use xlink:href="#path1_fill" transform="matrix(0.722769 0.69109 -0.722769 0.69109 -3339.33 -4302)" fill="#FFFFFF"/>
</g>
<g id="Rectangle 3">
<use xlink:href="#path2_fill" transform="matrix(0.722769 0.69109 -0.722769 0.69109 -3350 -4291.8)" fill="#FFFFFF"/>
</g>
</g>
</g>
</g>
<defs>
<path id="path0_fill" d="M 29.5188 14.7594C 29.5188 22.9108 22.9108 29.5188 14.7594 29.5188C 6.608 29.5188 0 22.9108 0 14.7594C 0 6.608 6.608 0 14.7594 0C 22.9108 0 29.5188 6.608 29.5188 14.7594Z"/>
<path id="path1_fill" d="M 29.5162 14.7581C 29.5162 22.9087 22.9087 29.5162 14.7581 29.5162C 6.60742 29.5162 0 22.9087 0 14.7581C 0 6.60742 6.60742 0 14.7581 0C 22.9087 0 29.5162 6.60742 29.5162 14.7581Z"/>
<path id="path2_fill" d="M 0 0L 29.5162 0L 29.5162 29.4162C 29.5162 29.4714 29.4714 29.5162 29.4162 29.5162L 0 29.5162L 0 0Z"/>
</defs>
</svg>
