<svg width="300" height="257" viewBox="0 0 300 257" version="1.1" xmlns="http://www.w3.org/2000/svg" xmlns:xlink="http://www.w3.org/1999/xlink">
<title>logo</title>
<desc>Created using Figma</desc>
<g id="Canvas" transform="translate(5324 5429)">
<g id="logo">
<g id="Rectangle 2">
<use xlink:href="#path0_fill" transform="translate(-5302.05 -5416.33)" fill="#4DB6AC"/>
</g>
<g id="Logo">
<g id="Vector 4">
<use xlink:href="#path1_fill" transform="translate(-5249 -5429)" fill="#4DB6AC"/>
<mask id="mask0_outline_ins">
<use xlink:href="#path1_fill" fill="white" transform="translate(-5249 -5429)"/>
</mask>
<g mask="url(#mask0_outline_ins)">
<use xlink:href="#path2_stroke_2x" transform="translate(-5249 -5429)" fill="#4DB6AC"/>
</g>
</g>
<g id="Rectangle 3" filter="url(#filter0_d)">
<use xlink:href="#path3_fill" transform="translate(-5322 -5397.62)" fill="#FF9491"/>
</g>
<g id="Rectangle 3.1">
<use xlink:href="#path4_fill" transform="translate(-5322 -5397.62)" fill="#4DB6AC"/>
</g>
<g id="Line">
<use xlink:href="#path5_stroke" transform="translate(-5322 -5321)" fill="#FFFFFF"/>
</g>
<g id="Line">
<use xlink:href="#path5_stroke" transform="translate(-5112.22 -5321)" fill="#FFFFFF"/>
</g>
<g id="Ellipse 2">
<use xlink:href="#path6_fill" transform="translate(-5248.85 -5358.41)" fill="#FF9491"/>
</g>
<g id="Group 2">
<g id="Ellipse 2">
<use xlink:href="#path7_fill" transform="translate(-5225.27 -5314.96)" fill="#FFFFFF"/>
</g>
<g id="Ellipse 2.1">
<use xlink:href="#path7_fill" transform="translate(-5225.27 -5290.28)" fill="#FFFFFF"/>
</g>
<g id="Ellipse 2.2">
<use xlink:href="#path7_fill" transform="translate(-5156.71 -5314.96)" fill="#FFFFFF"/>
</g>
<g id="Ellipse 2.3">
<use xlink:href="#path7_fill" transform="translate(-5156.71 -5290.28)" fill="#FFFFFF"/>
</g>
<g id="Rectangle 4">
<use xlink:href="#path8_fill" transform="translate(-5208.34 -5296.26)" fill="#FFFFFF"/>
<use xlink:href="#path9_stroke" transform="translate(-5208.34 -5296.26)" fill="#FFFFFF"/>
</g>
</g>
<g id="Ellipse">
<mask id="mask1_outline_ins">
<use xlink:href="#path10_fill" fill="white" transform="translate(-5262.75 -5374.09)"/>
</mask>
<g mask="url(#mask1_outline_ins)">
<use xlink:href="#path11_stroke_2x" transform="translate(-5262.75 -5374.09)" fill="#FFFFFF"/>
</g>
</g>
</g>
</g>
</g>
<defs>
<filter id="filter0_d" filterUnits="userSpaceOnUse" x="-5324" y="-5400" width="300" height="228" color-interpolation-filters="sRGB">
<feFlood flood-opacity="0" result="BackgroundImageFix"/>
<feColorMatrix in="SourceAlpha" type="matrix" values="0 0 0 0 0 0 0 0 0 0 0 0 0 0 0 0 0 0 255 0"/>
<feOffset dx="2" dy="2"/>
<feGaussianBlur stdDeviation="2"/>
<feColorMatrix type="matrix" values="0 0 0 0 0 0 0 0 0 0 0 0 0 0 0 0 0 0 0.1 0"/>
<feBlend mode="normal" in2="BackgroundImageFix" result="effect1_dropShadow"/>
<feBlend mode="normal" in="SourceGraphic" in2="effect1_dropShadow" result="shape"/>
</filter>
<path id="path0_fill" d="M 0 0L 42.3188 0L 42.3188 42.2356L 0 42.2356L 0 0Z"/>
<path id="path1_fill" d="M 28.3889 0L 0 41.8333L 146 41.8333L 117.611 0L 28.3889 0Z"/>
<path id="path2_stroke_2x" d="M 0 41.8333L -0.827458 41.2718L -1.88714 42.8333L 0 42.8333L 0 41.8333ZM 28.3889 0L 28.3889 -1L 27.859 -1L 27.5614 -0.561528L 28.3889 0ZM 117.611 0L 118.439 -0.561528L 118.141 -1L 117.611 -1L 117.611 0ZM 146 41.8333L 146 42.8333L 147.887 42.8333L 146.827 41.2718L 146 41.8333ZM 0.827458 42.3949L 29.2163 0.561528L 27.5614 -0.561528L -0.827458 41.2718L 0.827458 42.3949ZM 28.3889 1L 117.611 1L 117.611 -1L 28.3889 -1L 28.3889 1ZM 116.784 0.561528L 145.173 42.3949L 146.827 41.2718L 118.439 -0.561528L 116.784 0.561528ZM 146 40.8333L 0 40.8333L 0 42.8333L 146 42.8333L 146 40.8333Z"/>
<path id="path3_fill" d="M 0 15C 0 6.71573 6.71573 0 15 0L 282 0C 287.523 0 292 4.47715 292 10L 292 209.625C 292 215.148 287.523 219.625 282 219.625L 10 219.625C 4.47715 219.625 0 215.148 0 209.625L 0 15Z"/>
<path id="path4_fill" d="M 0 10C 0 4.47716 4.47715 0 10 0L 282 0C 287.523 0 292 4.47715 292 10L 292 67.5769L 0 67.5769L 0 10Z"/>
<path id="path5_stroke" d="M 0 0L 82.2195 0L 82.2195 -20L 0 -20L 0 0Z"/>
<path id="path6_fill" d="M 141.466 70.5938C 141.466 109.582 109.798 141.188 70.7329 141.188C 31.6682 141.188 0 109.582 0 70.5938C 0 31.6059 31.6682 0 70.7329 0C 109.798 0 141.466 31.6059 141.466 70.5938Z"/>
<path id="path7_fill" d="M 29.3814 14.8099C 29.3814 22.9891 22.8041 29.6198 14.6907 29.6198C 6.57724 29.6198 0 22.9891 0 14.8099C 0 6.63061 6.57724 0 14.6907 0C 22.8041 0 29.3814 6.63061 29.3814 14.8099Z"/>
<path id="path8_fill" d="M 0 0L 63.8725 0L 63.8725 17.0883L 0 17.0883L 0 0Z"/>
<path id="path9_stroke" d="M 0 0L 0 -2L -2 -2L -2 0L 0 0ZM 63.8725 0L 65.8725 0L 65.8725 -2L 63.8725 -2L 63.8725 0ZM 63.8725 17.0883L 63.8725 19.0883L 65.8725 19.0883L 65.8725 17.0883L 63.8725 17.0883ZM 0 17.0883L -2 17.0883L -2 19.0883L 0 19.0883L 0 17.0883ZM 0 2L 63.8725 2L 63.8725 -2L 0 -2L 0 2ZM 61.8725 0L 61.8725 17.0883L 65.8725 17.0883L 65.8725 0L 61.8725 0ZM 63.8725 15.0883L 0 15.0883L 0 19.0883L 63.8725 19.0883L 63.8725 15.0883ZM 2 17.0883L 2 0L -2 0L -2 17.0883L 2 17.0883Z"/>
<path id="path10_fill" d="M 172.903 86.2813C 172.903 133.933 134.197 172.563 86.4513 172.563C 38.7056 172.563 0 133.933 0 86.2813C 0 38.6294 38.7056 0 86.4513 0C 134.197 0 172.903 38.6294 172.903 86.2813Z"/>
<path id="path11_stroke_2x" d="M 147.903 86.2813C 147.903 120.08 120.436 147.563 86.4513 147.563L 86.4513 197.563C 147.958 197.563 197.903 147.787 197.903 86.2813L 147.903 86.2813ZM 86.4513 147.563C 52.4663 147.563 25 120.08 25 86.2813L -25 86.2813C -25 147.787 24.9449 197.563 86.4513 197.563L 86.4513 147.563ZM 25 86.2813C 25 52.483 52.4663 25 86.4513 25L 86.4513 -25C 24.9449 -25 -25 24.7759 -25 86.2813L 25 86.2813ZM 86.4513 25C 120.436 25 147.903 52.483 147.903 86.2813L 197.903 86.2813C 197.903 24.7759 147.958 -25 86.4513 -25L 86.4513 25Z"/>
</defs>
</svg>
