<svg width="300" height="257" viewBox="0 0 300 257" version="1.1" xmlns="http://www.w3.org/2000/svg" xmlns:xlink="http://www.w3.org/1999/xlink">
<title>logo-mobile</title>
<desc>Created using Figma</desc>
<g id="Canvas" transform="translate(5966 5742)">
<g id="logo-mobile">
<g id="logo-mobile">
<g id="Logo">
<g id="Vector 4">
<use xlink:href="#path0_fill" transform="translate(-5891 -5742)" fill="#FFFFFF"/>
<mask id="mask0_outline_ins">
<use xlink:href="#path0_fill" fill="white" transform="translate(-5891 -5742)"/>
</mask>
<g mask="url(#mask0_outline_ins)">
<use xlink:href="#path1_stroke_2x" transform="translate(-5891 -5742)" fill="#FFFFFF"/>
</g>
</g>
<g id="Rectangle 3" filter="url(#filter0_d)">
<use xlink:href="#path2_fill" transform="translate(-5964 -5710.62)" fill="#FFFFFF"/>
</g>
</g>
</g>
<g id="Group 2.1">
<g id="Ellipse 2">
<use xlink:href="#path3_fill" transform="translate(-5931 -5663)" fill="#FF9491"/>
</g>
<g id="Ellipse 2.1">
<use xlink:href="#path3_fill" transform="translate(-5931 -5606.18)" fill="#FF9491"/>
</g>
<g id="Ellipse 2.2">
<use xlink:href="#path3_fill" transform="translate(-5772.8 -5663)" fill="#FF9491"/>
</g>
<g id="Ellipse 2.3">
<use xlink:href="#path3_fill" transform="translate(-5772.8 -5606.18)" fill="#FF9491"/>
</g>
<g id="Rectangle 4">
<use xlink:href="#path4_fill" transform="translate(-5891.94 -5619.94)" fill="#FF9491"/>
<use xlink:href="#path5_stroke" transform="translate(-5891.94 -5619.94)" fill="#FF9491"/>
</g>
</g>
</g>
</g>
<defs>
<filter id="filter0_d" filterUnits="userSpaceOnUse" x="-5966" y="-5713" width="300" height="228" color-interpolation-filters="sRGB">
<feFlood flood-opacity="0" result="BackgroundImageFix"/>
<feColorMatrix in="SourceAlpha" type="matrix" values="0 0 0 0 0 0 0 0 0 0 0 0 0 0 0 0 0 0 255 0"/>
<feOffset dx="2" dy="2"/>
<feGaussianBlur stdDeviation="2"/>
<feColorMatrix type="matrix" values="0 0 0 0 0 0 0 0 0 0 0 0 0 0 0 0 0 0 0.1 0"/>
<feBlend mode="normal" in2="BackgroundImageFix" result="effect1_dropShadow"/>
<feBlend mode="normal" in="SourceGraphic" in2="effect1_dropShadow" result="shape"/>
</filter>
<path id="path0_fill" d="M 28.3889 0L 0 41.8333L 146 41.8333L 117.611 0L 28.3889 0Z"/>
<path id="path1_stroke_2x" d="M 0 41.8333L -0.827458 41.2718L -1.88714 42.8333L 0 42.8333L 0 41.8333ZM 28.3889 0L 28.3889 -1L 27.859 -1L 27.5614 -0.561528L 28.3889 0ZM 117.611 0L 118.439 -0.561528L 118.141 -1L 117.611 -1L 117.611 0ZM 146 41.8333L 146 42.8333L 147.887 42.8333L 146.827 41.2718L 146 41.8333ZM 0.827458 42.3949L 29.2163 0.561528L 27.5614 -0.561528L -0.827458 41.2718L 0.827458 42.3949ZM 28.3889 1L 117.611 1L 117.611 -1L 28.3889 -1L 28.3889 1ZM 116.784 0.561528L 145.173 42.3949L 146.827 41.2718L 118.439 -0.561528L 116.784 0.561528ZM 146 40.8333L 0 40.8333L 0 42.8333L 146 42.8333L 146 40.8333Z"/>
<path id="path2_fill" d="M 0 20C 0 8.95431 8.95431 0 20 0L 272 0C 283.046 0 292 8.9543 292 20L 292 199.625C 292 210.671 283.046 219.625 272 219.625L 20 219.625C 8.9543 219.625 0 210.671 0 199.625L 0 20Z"/>
<path id="path3_fill" d="M 67.7999 34.0909C 67.7999 52.9188 52.6224 68.1819 33.9 68.1819C 15.1775 68.1819 0 52.9188 0 34.0909C 0 15.263 15.1775 0 33.9 0C 52.6224 0 67.7999 15.263 67.7999 34.0909Z"/>
<path id="path4_fill" d="M 0 0L 147.391 0L 147.391 39.3357L 0 39.3357L 0 0Z"/>
<path id="path5_stroke" d="M 0 0L 0 -2L -2 -2L -2 0L 0 0ZM 147.391 0L 149.391 0L 149.391 -2L 147.391 -2L 147.391 0ZM 147.391 39.3357L 147.391 41.3357L 149.391 41.3357L 149.391 39.3357L 147.391 39.3357ZM 0 39.3357L -2 39.3357L -2 41.3357L 0 41.3357L 0 39.3357ZM 0 2L 147.391 2L 147.391 -2L 0 -2L 0 2ZM 145.391 0L 145.391 39.3357L 149.391 39.3357L 149.391 0L 145.391 0ZM 147.391 37.3357L 0 37.3357L 0 41.3357L 147.391 41.3357L 147.391 37.3357ZM 2 39.3357L 2 0L -2 0L -2 39.3357L 2 39.3357Z"/>
</defs>
</svg>
