<svg width="483" height="445" viewBox="0 0 483 445" version="1.1" xmlns="http://www.w3.org/2000/svg" xmlns:xlink="http://www.w3.org/1999/xlink">
<title>shiba</title>
<desc>Created using Figma</desc>
<g id="Canvas" transform="translate(6734 6838)">
<g id="shiba">
<g id="Ellipse">
<use xlink:href="#path0_fill" transform="translate(-6700.04 -6734)" fill="#FCA96D"/>
</g>
<g id="Subtract">
<use xlink:href="#path1_fill" transform="translate(-6492.5 -6585.98)" fill="#FFE6D4"/>
</g>
<g id="Subtract">
<use xlink:href="#path2_fill" transform="matrix(-1 0 0 1 -6492.5 -6586)" fill="#FFE6D4"/>
</g>
<g id="Polygon">
<use xlink:href="#path3_fill" transform="matrix(0.939258 -0.343211 0.343211 0.939258 -6786 -6799.33)" fill="#FCA96D"/>
</g>
<g id="Polygon">
<use xlink:href="#path4_fill" transform="matrix(0.939258 -0.343211 0.343211 0.939258 -6707 -6772.86)" fill="#FFE6D4"/>
</g>
<g id="Polygon">
<use xlink:href="#path3_fill" transform="matrix(0.939274 0.343168 -0.343168 0.939274 -6452.7 -6892)" fill="#FCA96D"/>
</g>
<g id="Vector 2">
<use xlink:href="#path5_fill" transform="translate(-6632 -6546)" fill="#FFE6D4"/>
</g>
<g id="Polygon 2">
<use xlink:href="#path6_fill" transform="matrix(-1 -1.22465e-16 1.22465e-16 -1 -6413 -6461)" fill="#332C28"/>
</g>
<g id="Polygon">
<use xlink:href="#path4_fill" transform="matrix(0.939274 0.343168 -0.343168 0.939274 -6410.42 -6820)" fill="#FFE6D4"/>
</g>
<g id="Ellipse 2">
<use xlink:href="#path7_fill" transform="matrix(0.975639 0.219381 -0.219381 0.975639 -6591.13 -6615)" fill="#332C28"/>
</g>
<g id="Ellipse 2.1">
<use xlink:href="#path7_fill" transform="matrix(0.975649 -0.219335 0.219335 0.975649 -6457 -6600.74)" fill="#332C28"/>
</g>
<g id="Ellipse 3">
<use xlink:href="#path8_fill" transform="translate(-6439 -6589)" fill="#FFFFFF"/>
</g>
<g id="Ellipse 3.1">
<use xlink:href="#path8_fill" transform="translate(-6560 -6589)" fill="#FFFFFF"/>
</g>
<g id="Ellipse 4">
<use xlink:href="#path9_fill" transform="matrix(0.9633 0.268427 -0.268427 0.9633 -6569.26 -6648.64)" fill="#FFE6D4"/>
</g>
<g id="Ellipse 4.1">
<use xlink:href="#path9_fill" transform="matrix(0.963303 -0.268415 0.268415 0.963303 -6470 -6636.65)" fill="#FFE6D4"/>
</g>
<g id="Vector 3.1">
<use xlink:href="#path10_stroke" transform="matrix(-1 0 0 1 -6425 -6475)" fill="#332C28"/>
</g>
<g id="Vector 3.2">
<use xlink:href="#path10_stroke" transform="translate(-6559 -6475)" fill="#332C28"/>
</g>
</g>
</g>
<defs>
<path id="path0_fill" d="M 416.039 170.5C 416.039 264.665 322.906 341 208.02 341C 93.1335 341 0 264.665 0 170.5C 0 76.3354 93.1335 0 208.02 0C 322.906 0 416.039 76.3354 416.039 170.5Z"/>
<path id="path1_fill" fill-rule="evenodd" d="M 0 192.903C 0.160156 192.903 0.320312 192.904 0.480469 192.904C 73.5737 192.904 134.888 191.133 171.989 144.402C 193.202 117.682 208.5 56.658 208.5 22.4036C 208.5 -16.759 192.213 1.33917 164.996 31.5828C 126.771 74.0584 66.9854 140.491 0.480469 105.902C 0.320312 105.984 0.160156 106.067 0 106.148L 0 192.903Z"/>
<path id="path2_fill" fill-rule="evenodd" d="M 0 106.148L 0 192.903C 0.160156 192.903 0.320312 192.904 0.480469 192.904C 73.5737 192.904 134.888 191.133 171.989 144.402C 193.202 117.682 208.5 56.658 208.5 22.4036C 208.5 -16.759 192.213 1.33917 164.996 31.5828C 126.771 74.0584 66.9854 140.491 0.480469 105.902C 0.320312 105.984 0.160156 106.067 0 106.148Z"/>
<path id="path3_fill" d="M 103.684 62.8256C 116.569 36.981 153.444 36.9811 166.33 62.8256L 226.69 183.893C 238.291 207.162 221.368 234.51 195.367 234.51L 74.6462 234.51C 48.6453 234.51 31.722 207.162 43.3233 183.893L 103.684 62.8256Z"/>
<path id="path4_fill" d="M 55.2506 26.9252C 60.7728 15.849 76.5765 15.849 82.0987 26.9252L 117.333 97.5966C 122.305 107.569 115.052 119.289 103.909 119.289L 33.4401 119.289C 22.2969 119.289 15.044 107.569 20.016 97.5966L 55.2506 26.9252Z"/>
<path id="path5_fill" d="M 52.522 62.702L 52.522 65.2348C 52.522 71.0589 49.7467 76.5344 45.0494 79.9776C 30.7994 90.4232 38.1878 113 55.8563 113L 227.872 113C 245.324 113 253.121 91.0933 239.592 80.0677C 235.27 76.5446 232.761 71.2637 232.761 65.6871L 232.761 63.3021C 232.761 55.9113 229.295 48.9484 223.397 44.4934L 177.876 10.1044C 169.196 3.54747 158.615 0 147.737 0L 134.142 0C 122.725 0 111.653 3.90676 102.764 11.071L 61.1915 44.5793C 55.7093 48.998 52.522 55.6608 52.522 62.702Z"/>
<path id="path6_fill" d="M 64.4084 13.9915C 72.2072 6.24814 84.7928 6.24813 92.5916 13.9915L 112.046 33.3075C 124.714 45.8861 115.807 67.5 97.9542 67.5L 59.0457 67.5C 41.1933 67.5 32.2856 45.8861 44.9541 33.3075L 64.4084 13.9915Z"/>
<path id="path7_fill" d="M 65 22.5C 65 34.9264 50.4493 45 32.5 45C 14.5507 45 0 34.9264 0 22.5C 0 10.0736 14.5507 0 32.5 0C 50.4493 0 65 10.0736 65 22.5Z"/>
<path id="path8_fill" d="M 18 9C 18 13.9706 13.9706 18 9 18C 4.02944 18 0 13.9706 0 9C 0 4.02944 4.02944 0 9 0C 13.9706 0 18 4.02944 18 9Z"/>
<path id="path9_fill" d="M 46 14.5C 46 22.5081 35.7025 29 23 29C 10.2975 29 0 22.5081 0 14.5C 0 6.49187 10.2975 0 23 0C 35.7025 0 46 6.49187 46 14.5Z"/>
<path id="path10_stroke" d="M 1.60301 6.75344L 4.28356 5.40635L 1.60301 6.75344ZM 53.1551 24.1474L 54.6335 26.7579L 54.6335 26.7579L 53.1551 24.1474ZM 54.1168 23.6028L 52.6385 20.9923L 52.6385 20.9923L 54.1168 23.6028ZM 63.2668 14.7566L 65.8259 16.3222L 65.8259 16.3222L 63.2668 14.7566ZM 18.1265 23.5768L 16.7314 26.2327L 16.7314 26.2327L 18.1265 23.5768ZM -2.68055 4.91073L -1.07753 8.10053L 4.28356 5.40635L 2.68055 2.21654L -2.68055 4.91073ZM 36.0589 31L 38.5341 31L 38.5341 25L 36.0589 25L 36.0589 31ZM 54.6335 26.7579L 55.5951 26.2132L 52.6385 20.9923L 51.6768 21.5369L 54.6335 26.7579ZM 70 1.50115L 70 0L 64 0L 64 1.50115L 70 1.50115ZM 65.8259 16.3222C 68.5555 11.8605 70 6.73161 70 1.50115L 64 1.50115C 64 5.62657 62.8607 9.67186 60.7078 13.1909L 65.8259 16.3222ZM 55.5951 26.2132C 59.7895 23.8379 63.3103 20.434 65.8259 16.3222L 60.7078 13.1909C 58.7237 16.4341 55.9467 19.1188 52.6385 20.9923L 55.5951 26.2132ZM 38.5341 31C 44.1769 31 49.7234 29.5385 54.6335 26.7579L 51.6768 21.5369C 47.6685 23.8069 43.1406 25 38.5341 25L 38.5341 31ZM 16.7314 26.2327C 22.6926 29.364 29.3253 31 36.0589 31L 36.0589 25C 30.2974 25 24.6222 23.6001 19.5215 20.9209L 16.7314 26.2327ZM -1.07753 8.10053C 2.81985 15.8559 9.04741 22.1964 16.7314 26.2327L 19.5215 20.9209C 12.9468 17.4673 7.61831 12.0421 4.28356 5.40635L -1.07753 8.10053Z"/>
</defs>
</svg>
